<?xml version="1.0" encoding="UTF-8" standalone="no" ?>
<!DOCTYPE svg PUBLIC "-//W3C//DTD SVG 1.1//EN" "http://www.w3.org/Graphics/SVG/1.1/DTD/svg11.dtd">
<svg xmlns="http://www.w3.org/2000/svg" xmlns:xlink="http://www.w3.org/1999/xlink" version="1.1" width="500" height="500" viewBox="0 0 500 500" xml:space="preserve">
<desc>Created with Fabric.js 5.2.4</desc>
<defs>
</defs>
<rect x="0" y="0" width="100%" height="100%" fill="transparent"></rect>
<g transform="matrix(0 0 0 0 0 0)" id="4630feb5-1182-424c-9021-ead0234e89d8"  >
</g>
<g transform="matrix(1 0 0 1 250 250)" id="67dae7e6-c1fe-40cd-a7b8-21ac934f6c7f"  >
<rect style="stroke: none; stroke-width: 1; stroke-dasharray: none; stroke-linecap: butt; stroke-dashoffset: 0; stroke-linejoin: miter; stroke-miterlimit: 4; fill: rgb(255,255,255); fill-rule: nonzero; opacity: 1; visibility: hidden;" vector-effect="non-scaling-stroke"  x="-250" y="-250" rx="0" ry="0" width="500" height="500" />
</g>
<g transform="matrix(0.41 0 0 0.4 256.56 250.84)"  >
<g style="" vector-effect="non-scaling-stroke"   >
		<g transform="matrix(0.13 0 0 -0.13 -15.47 -109.84)"  >
<path style="stroke: none; stroke-width: 1; stroke-dasharray: none; stroke-linecap: butt; stroke-dashoffset: 0; stroke-linejoin: miter; stroke-miterlimit: 4; fill: rgb(77,55,167); fill-rule: nonzero; opacity: 1;" vector-effect="non-scaling-stroke"  transform=" translate(-4639.92, -5419.61)" d="M 375 9368 C 217 9338 74 9211 19 9053 C 0 8998 0 8952 0 6977 C 0 4722 -7 4924 70 4881 C 151 4836 254 4863 292 4940 C 309 4973 310 5066 310 6453 L 310 7930 L 4635 7930 L 8960 7930 L 8958 4906 L 8955 1881 L 8934 1853 C 8923 1838 8894 1815 8870 1803 C 8828 1781 8815 1780 8590 1780 C 8380 1780 8351 1778 8320 1761 C 8267 1734 8240 1687 8240 1626 C 8240 1558 8266 1511 8320 1483 C 8361 1461 8373 1460 8600 1460 C 8871 1460 8917 1466 9018 1516 C 9137 1574 9226 1681 9264 1809 C 9279 1859 9280 2195 9280 5420 C 9280 8645 9279 8981 9264 9031 C 9215 9199 9074 9329 8903 9365 C 8844 9378 8247 9380 4630 9379 C 2015 9378 406 9374 375 9368 z M 887 8787 C 983 8722 983 8588 886 8516 C 847 8487 753 8487 713 8516 C 666 8551 640 8598 640 8647 C 640 8783 778 8861 887 8787 z M 1521 8794 C 1583 8763 1621 8685 1605 8623 C 1587 8548 1518 8490 1449 8490 C 1402 8490 1334 8526 1310 8564 C 1280 8614 1275 8654 1294 8704 C 1331 8802 1430 8841 1521 8794 z M 2171 8794 C 2233 8762 2267 8683 2249 8615 C 2234 8563 2175 8504 2127 8495 C 2067 8484 2023 8497 1980 8540 C 1916 8604 1914 8691 1975 8759 C 2029 8818 2100 8831 2171 8794 z" stroke-linecap="round" />
</g>
		<g transform="matrix(0.13 0 0 -0.13 -375.49 -272.52)"  >
<path style="stroke: none; stroke-width: 1; stroke-dasharray: none; stroke-linecap: butt; stroke-dashoffset: 0; stroke-linejoin: miter; stroke-miterlimit: 4; fill: rgb(77,55,167); fill-rule: nonzero; opacity: 1;" vector-effect="non-scaling-stroke"  transform=" translate(-1850, -6712.5)" d="M 880 7738 C 862 7725 837 7702 826 7687 C 805 7659 805 7654 802 6727 L 800 5795 L 822 5750 C 836 5724 859 5697 880 5685 C 914 5665 930 5665 1850 5665 C 2770 5665 2786 5665 2820 5685 C 2841 5697 2864 5724 2878 5750 L 2900 5795 L 2898 6727 C 2895 7654 2895 7659 2874 7687 C 2863 7702 2838 7725 2820 7738 L 2787 7760 L 1850 7760 L 913 7760 L 880 7738 z M 2406 7259 C 2480 7224 2516 7138 2486 7067 C 2457 6997 1982 6215 1950 6185 C 1922 6158 1912 6155 1852 6155 C 1801 6155 1779 6160 1760 6174 C 1708 6214 1314 6652 1298 6688 C 1275 6737 1276 6765 1301 6817 C 1340 6897 1442 6933 1517 6892 C 1534 6883 1610 6808 1685 6727 L 1822 6579 L 2019 6906 C 2202 7211 2219 7236 2260 7257 C 2313 7285 2351 7286 2406 7259 z" stroke-linecap="round" />
</g>
		<g transform="matrix(0.13 0 0 -0.13 137.04 -345.23)"  >
<path style="stroke: none; stroke-width: 1; stroke-dasharray: none; stroke-linecap: butt; stroke-dashoffset: 0; stroke-linejoin: miter; stroke-miterlimit: 4; fill: rgb(77,55,167); fill-rule: nonzero; opacity: 1;" vector-effect="non-scaling-stroke"  transform=" translate(-5730.25, -7280)" d="M 3313 7419 C 3256 7391 3230 7347 3230 7278 C 3230 7213 3256 7167 3310 7139 C 3343 7121 3427 7120 5730 7120 L 8115 7120 L 8154 7143 C 8255 7200 8256 7340 8157 7414 L 8129 7435 L 5742 7438 L 3355 7440 L 3313 7419 z" stroke-linecap="round" />
</g>
		<g transform="matrix(0.13 0 0 -0.13 136.91 -258.56)"  >
<path style="stroke: none; stroke-width: 1; stroke-dasharray: none; stroke-linecap: butt; stroke-dashoffset: 0; stroke-linejoin: miter; stroke-miterlimit: 4; fill: rgb(77,55,167); fill-rule: nonzero; opacity: 1;" vector-effect="non-scaling-stroke"  transform=" translate(-5729.24, -6630)" d="M 3310 6772 C 3258 6746 3230 6698 3230 6632 C 3230 6562 3256 6519 3314 6491 L 3357 6470 L 5743 6472 L 8129 6475 L 8157 6496 C 8211 6536 8232 6579 8228 6641 C 8223 6706 8196 6750 8146 6774 C 8115 6789 7907 6790 5728 6790 C 3479 6790 3343 6789 3310 6772 z" stroke-linecap="round" />
</g>
		<g transform="matrix(0.13 0 0 -0.13 137.01 -172.55)"  >
<path style="stroke: none; stroke-width: 1; stroke-dasharray: none; stroke-linecap: butt; stroke-dashoffset: 0; stroke-linejoin: miter; stroke-miterlimit: 4; fill: rgb(77,55,167); fill-rule: nonzero; opacity: 1;" vector-effect="non-scaling-stroke"  transform=" translate(-5730, -5985)" d="M 3302 6120 C 3205 6060 3205 5910 3302 5850 C 3335 5830 3358 5830 5730 5830 C 8102 5830 8125 5830 8158 5850 C 8255 5910 8255 6060 8158 6120 C 8125 6140 8102 6140 5730 6140 C 3358 6140 3335 6140 3302 6120 z" stroke-linecap="round" />
</g>
		<g transform="matrix(0.13 0 0 -0.13 -375.41 61.3)"  >
<path style="stroke: none; stroke-width: 1; stroke-dasharray: none; stroke-linecap: butt; stroke-dashoffset: 0; stroke-linejoin: miter; stroke-miterlimit: 4; fill: rgb(77,55,167); fill-rule: nonzero; opacity: 1;" vector-effect="non-scaling-stroke"  transform=" translate(-1850.57, -4208.84)" d="M 907 5246 C 858 5228 843 5214 819 5168 C 800 5131 800 5104 802 4196 C 805 3265 805 3261 826 3233 C 837 3218 862 3195 880 3183 L 913 3160 L 1850 3160 L 2787 3160 L 2820 3183 C 2838 3195 2863 3218 2874 3233 C 2895 3261 2895 3266 2898 4193 L 2900 5125 L 2878 5170 C 2864 5196 2841 5223 2820 5235 C 2786 5255 2768 5255 1865 5257 C 1113 5259 938 5257 907 5246 z" stroke-linecap="round" />
</g>
		<g transform="matrix(0.13 0 0 -0.13 137.1 -21.34)"  >
<path style="stroke: none; stroke-width: 1; stroke-dasharray: none; stroke-linecap: butt; stroke-dashoffset: 0; stroke-linejoin: miter; stroke-miterlimit: 4; fill: rgb(77,55,167); fill-rule: nonzero; opacity: 1;" vector-effect="non-scaling-stroke"  transform=" translate(-5730.66, -4850.88)" d="M 3302 4990 C 3256 4962 3230 4914 3230 4857 C 3230 4773 3275 4717 3354 4700 C 3389 4693 4138 4691 5760 4692 L 8115 4695 L 8150 4716 C 8255 4777 8259 4928 8158 4990 C 8125 5010 8102 5010 5730 5010 C 3358 5010 3335 5010 3302 4990 z" stroke-linecap="round" />
</g>
		<g transform="matrix(0.13 0 0 -0.13 -272.87 221.68)"  >
<path style="stroke: none; stroke-width: 1; stroke-dasharray: none; stroke-linecap: butt; stroke-dashoffset: 0; stroke-linejoin: miter; stroke-miterlimit: 4; fill: rgb(77,55,167); fill-rule: nonzero; opacity: 1;" vector-effect="non-scaling-stroke"  transform=" translate(-2659.92, -2993.89)" d="M 77 4509 C 56 4498 30 4475 20 4457 C 0 4426 0 4397 0 3134 C 0 1881 1 1841 19 1787 C 75 1625 218 1501 384 1471 C 426 1463 1156 1460 2819 1460 C 5173 1460 5194 1460 5235 1480 C 5344 1533 5349 1697 5244 1757 L 5205 1780 L 2828 1780 C 1177 1780 443 1783 423 1791 C 381 1806 331 1859 320 1900 C 314 1922 310 2392 310 3174 L 310 4412 L 288 4451 C 248 4523 153 4549 77 4509 z" stroke-linecap="round" />
</g>
		<g transform="matrix(0.13 0 0 -0.13 136.91 64.3)"  >
<path style="stroke: none; stroke-width: 1; stroke-dasharray: none; stroke-linecap: butt; stroke-dashoffset: 0; stroke-linejoin: miter; stroke-miterlimit: 4; fill: rgb(77,55,167); fill-rule: nonzero; opacity: 1;" vector-effect="non-scaling-stroke"  transform=" translate(-5729.24, -4208.6)" d="M 3339 4360 C 3267 4339 3230 4285 3230 4203 C 3230 4146 3256 4098 3302 4070 C 3335 4050 3358 4050 5723 4050 C 7907 4050 8115 4051 8146 4066 C 8196 4090 8223 4134 8228 4199 C 8232 4261 8211 4304 8157 4344 L 8129 4365 L 5747 4367 C 4437 4368 3353 4365 3339 4360 z" stroke-linecap="round" />
</g>
		<g transform="matrix(0.13 0 0 -0.13 137 150.77)"  >
<path style="stroke: none; stroke-width: 1; stroke-dasharray: none; stroke-linecap: butt; stroke-dashoffset: 0; stroke-linejoin: miter; stroke-miterlimit: 4; fill: rgb(77,55,167); fill-rule: nonzero; opacity: 1;" vector-effect="non-scaling-stroke"  transform=" translate(-5729.92, -3560)" d="M 3310 3701 C 3256 3673 3230 3627 3230 3562 C 3230 3492 3258 3445 3314 3419 C 3354 3401 3436 3400 5729 3400 C 8084 3400 8104 3400 8145 3420 C 8254 3473 8259 3637 8154 3697 L 8115 3720 L 5730 3720 C 3427 3720 3343 3719 3310 3701 z" stroke-linecap="round" />
</g>
		<g transform="matrix(0.13 0 0 -0.13 323.09 429.87)"  >
<path style="stroke: none; stroke-width: 1; stroke-dasharray: none; stroke-linecap: butt; stroke-dashoffset: 0; stroke-linejoin: miter; stroke-miterlimit: 4; fill: rgb(77,55,167); fill-rule: nonzero; opacity: 1;" vector-effect="non-scaling-stroke"  transform=" translate(-7102.34, -1435.18)" d="M 5622 2843 C 5579 2822 5542 2777 5535 2736 C 5525 2686 5846 464 5869 425 C 5878 409 5902 385 5921 372 C 5950 352 5965 349 6017 352 C 6070 355 6084 361 6111 385 C 6128 402 6261 553 6408 723 C 6554 892 6677 1030 6681 1030 C 6684 1030 6947 805 7265 529 C 7583 254 7853 24 7867 19 C 7906 5 7973 8 8007 28 C 8036 44 8637 726 8660 770 C 8674 796 8673 883 8658 915 C 8651 930 8384 1169 8063 1447 C 7705 1758 7483 1957 7487 1964 C 7491 1970 7609 2108 7749 2270 C 7890 2432 8017 2580 8032 2598 C 8095 2674 8070 2793 7980 2838 L 7936 2860 L 6795 2860 C 5766 2860 5652 2858 5622 2843 z" stroke-linecap="round" />
</g>
</g>
</g>
<g transform="matrix(NaN NaN NaN NaN 0 0)"  >
<g style=""   >
</g>
</g>
<g transform="matrix(NaN NaN NaN NaN 0 0)"  >
<g style=""   >
</g>
</g>
</svg>